<svg id="Слой_1" data-name="Слой 1" xmlns="http://www.w3.org/2000/svg" xmlns:xlink="http://www.w3.org/1999/xlink" width="506.97" height="370.29" viewBox="0 0 506.97 370.29">
  <defs>
    <style>
      .cls-1 {
        mask: url(#mask);
      }

      .cls-10, .cls-2, .cls-4, .cls-6, .cls-8 {
        mix-blend-mode: multiply;
      }

      .cls-2 {
        fill: url(#linear-gradient);
      }

      .cls-3 {
        mask: url(#mask-2);
      }

      .cls-4 {
        fill: url(#linear-gradient-2);
      }

      .cls-5 {
        mask: url(#mask-3);
      }

      .cls-6 {
        fill: url(#linear-gradient-3);
      }

      .cls-7 {
        mask: url(#mask-4);
      }

      .cls-8 {
        fill: url(#linear-gradient-4);
      }

      .cls-9 {
        mask: url(#mask-5);
      }

      .cls-10 {
        fill: url(#linear-gradient-5);
      }

      .cls-11 {
        mask: url(#mask-6);
      }

      .cls-12, .cls-26 {
        opacity: 0.72;
      }

      .cls-12 {
        fill: url(#linear-gradient-6);
      }

      .cls-13 {
        fill: #4a3e46;
      }

      .cls-14 {
        fill: #b07042;
      }

      .cls-15 {
        fill: #eea886;
      }

      .cls-16 {
        fill: #cf8c6c;
      }

      .cls-17 {
        fill: #d88a51;
      }

      .cls-18 {
        fill: #eb4747;
      }

      .cls-19 {
        fill: #db9c7c;
      }

      .cls-20 {
        fill: #bd7947;
      }

      .cls-21 {
        fill: #eddad3;
      }

      .cls-22 {
        fill: #1d3b54;
      }

      .cls-23 {
        fill: #a77860;
      }

      .cls-24 {
        fill: #6b5a65;
      }

      .cls-25 {
        mask: url(#mask-7);
      }

      .cls-26 {
        fill: url(#linear-gradient-7);
      }

      .cls-27 {
        fill: #ffd255;
      }

      .cls-28 {
        fill: #ffd078;
      }

      .cls-29 {
        fill: #fff;
      }

      .cls-30 {
        fill: url(#radial-gradient);
      }

      .cls-31 {
        fill: #ffd179;
      }

      .cls-32 {
        fill: #ffd887;
      }

      .cls-33 {
        fill: #ffd989;
      }

      .cls-34 {
        fill: #ffd785;
      }

      .cls-35 {
        mask: url(#mask-8);
      }

      .cls-36 {
        fill: url(#linear-gradient-8);
      }

      .cls-37 {
        mask: url(#mask-9);
      }

      .cls-38 {
        fill: url(#linear-gradient-9);
      }

      .cls-39 {
        mask: url(#mask-10);
      }

      .cls-40 {
        fill: url(#linear-gradient-10);
      }

      .cls-41 {
        fill: #d46946;
      }

      .cls-42 {
        fill: url(#linear-gradient-11);
      }

      .cls-43 {
        fill: url(#linear-gradient-12);
      }

      .cls-44 {
        fill: url(#linear-gradient-13);
      }

      .cls-45 {
        fill: #706865;
      }

      .cls-46 {
        fill: #bdafaa;
      }

      .cls-47 {
        fill: #b5deff;
      }

      .cls-48 {
        fill: #ffc655;
      }

      .cls-49 {
        fill: #4da8f2;
      }

      .cls-50 {
        fill: #efaa88;
      }

      .cls-51 {
        fill: #424773;
      }

      .cls-52 {
        fill: #292c47;
      }

      .cls-53 {
        fill: #e2d2ca;
      }

      .cls-54 {
        fill: #dfe1e8;
      }

      .cls-55 {
        fill: #518afa;
      }

      .cls-56 {
        fill: #202338;
      }

      .cls-57 {
        fill: #323657;
      }

      .cls-58 {
        fill: #e2e3ed;
      }

      .cls-59 {
        fill: #aab1e0;
      }

      .cls-60 {
        fill: #81807e;
      }

      .cls-61 {
        fill: #dbd8e3;
      }

      .cls-62 {
        fill: #1d2033;
      }

      .cls-63 {
        fill: #434343;
      }

      .cls-64 {
        fill: #eea987;
      }

      .cls-65 {
        fill: #5282fc;
      }

      .cls-66 {
        fill: #c4c1cc;
      }

      .cls-67 {
        fill: #5c5049;
      }

      .cls-68 {
        fill: #fab46c;
      }

      .cls-69 {
        fill: #fccca2;
      }

      .cls-70 {
        fill: #d4c3bd;
      }

      .cls-71 {
        fill: #de9673;
      }

      .cls-72 {
        fill: #1b4d8f;
      }

      .cls-73 {
        fill: #e6d3cc;
      }

      .cls-74 {
        fill: #ded1c5;
      }

      .cls-75 {
        fill: #bc8551;
      }

      .cls-76 {
        fill: #23344a;
      }

      .cls-77 {
        fill: #807066;
      }

      .cls-78 {
        fill: #e64053;
      }

      .cls-79 {
        fill: #5f8cc9;
      }

      .cls-80 {
        fill: #3a3f47;
      }

      .cls-81 {
        fill: #a32d3b;
      }

      .cls-82 {
        fill: #5e5853;
      }

      .cls-83 {
        fill: #91887f;
      }

      .cls-84 {
        fill: #6e6760;
      }

      .cls-85 {
        filter: url(#luminosity-noclip-10);
      }

      .cls-86 {
        filter: url(#luminosity-noclip-9);
      }

      .cls-87 {
        filter: url(#luminosity-noclip-8);
      }

      .cls-88 {
        filter: url(#luminosity-noclip-7);
      }

      .cls-89 {
        filter: url(#luminosity-noclip-6);
      }

      .cls-90 {
        filter: url(#luminosity-noclip-5);
      }

      .cls-91 {
        filter: url(#luminosity-noclip-4);
      }

      .cls-92 {
        filter: url(#luminosity-noclip-3);
      }

      .cls-93 {
        filter: url(#luminosity-noclip-2);
      }

      .cls-94 {
        filter: url(#luminosity-noclip);
      }
    </style>
    <filter id="luminosity-noclip" x="406.2" y="-8442" width="192.29" height="32766" filterUnits="userSpaceOnUse" color-interpolation-filters="sRGB">
      <feFlood flood-color="#fff" result="bg"/>
      <feBlend in="SourceGraphic" in2="bg"/>
    </filter>
    <mask id="mask" x="406.2" y="-8442" width="192.29" height="32766" maskUnits="userSpaceOnUse">
      <g class="cls-94"/>
    </mask>
    <linearGradient id="linear-gradient" x1="521.26" y1="461.87" x2="484.35" y2="398.45" gradientUnits="userSpaceOnUse">
      <stop offset="0"/>
      <stop offset="0.69" stop-color="#fff"/>
    </linearGradient>
    <filter id="luminosity-noclip-2" x="91.52" y="-8442" width="201.03" height="32766" filterUnits="userSpaceOnUse" color-interpolation-filters="sRGB">
      <feFlood flood-color="#fff" result="bg"/>
      <feBlend in="SourceGraphic" in2="bg"/>
    </filter>
    <mask id="mask-2" x="91.52" y="-8442" width="201.03" height="32766" maskUnits="userSpaceOnUse">
      <g class="cls-93"/>
    </mask>
    <linearGradient id="linear-gradient-2" x1="211.81" y1="463.34" x2="173.23" y2="397.06" xlink:href="#linear-gradient"/>
    <filter id="luminosity-noclip-3" x="314.87" y="-8442" width="15.46" height="32766" filterUnits="userSpaceOnUse" color-interpolation-filters="sRGB">
      <feFlood flood-color="#fff" result="bg"/>
      <feBlend in="SourceGraphic" in2="bg"/>
    </filter>
    <mask id="mask-3" x="314.87" y="-8442" width="15.46" height="32766" maskUnits="userSpaceOnUse">
      <g class="cls-92"/>
    </mask>
    <linearGradient id="linear-gradient-3" x1="322.6" y1="206.78" x2="322.6" y2="317.02" gradientTransform="translate(39.75 -38.13) rotate(7.21)" gradientUnits="userSpaceOnUse">
      <stop offset="0.01"/>
      <stop offset="1" stop-color="#fff"/>
    </linearGradient>
    <filter id="luminosity-noclip-4" x="367.87" y="-8442" width="14.45" height="32766" filterUnits="userSpaceOnUse" color-interpolation-filters="sRGB">
      <feFlood flood-color="#fff" result="bg"/>
      <feBlend in="SourceGraphic" in2="bg"/>
    </filter>
    <mask id="mask-4" x="367.87" y="-8442" width="14.45" height="32766" maskUnits="userSpaceOnUse">
      <g class="cls-91"/>
    </mask>
    <linearGradient id="linear-gradient-4" x1="375.1" y1="206.78" x2="375.1" y2="317.02" gradientTransform="translate(781.89 547.33) rotate(173.37)" xlink:href="#linear-gradient-3"/>
    <filter id="luminosity-noclip-5" x="316.25" y="-8442" width="65" height="32766" filterUnits="userSpaceOnUse" color-interpolation-filters="sRGB">
      <feFlood flood-color="#fff" result="bg"/>
      <feBlend in="SourceGraphic" in2="bg"/>
    </filter>
    <mask id="mask-5" x="316.25" y="-8442" width="65" height="32766" maskUnits="userSpaceOnUse">
      <g class="cls-90"/>
    </mask>
    <linearGradient id="linear-gradient-5" x1="348.75" y1="206.78" x2="348.75" y2="317.02" gradientTransform="matrix(1, 0, 0, 1, 0, 0)" xlink:href="#linear-gradient-3"/>
    <filter id="luminosity-noclip-6" x="406.2" y="423.56" width="192.29" height="11.59" filterUnits="userSpaceOnUse" color-interpolation-filters="sRGB">
      <feFlood flood-color="#fff" result="bg"/>
      <feBlend in="SourceGraphic" in2="bg"/>
    </filter>
    <mask id="mask-6" x="314.68" y="358.7" width="192.29" height="11.59" maskUnits="userSpaceOnUse">
      <g class="cls-89">
        <g transform="translate(-91.52 -64.85)">
          <g class="cls-1">
            <path class="cls-2" d="M598.48,429.35c0,3.2-43,5.8-96.14,5.8s-96.14-2.6-96.14-5.8,43-5.79,96.14-5.79S598.48,426.15,598.48,429.35Z"/>
          </g>
        </g>
      </g>
    </mask>
    <linearGradient id="linear-gradient-6" x1="521.26" y1="461.87" x2="484.35" y2="398.45" gradientUnits="userSpaceOnUse">
      <stop offset="0" stop-color="#97cbec"/>
      <stop offset="0.69" stop-color="#ccc2f5"/>
    </linearGradient>
    <filter id="luminosity-noclip-7" x="91.52" y="423.56" width="201.03" height="11.59" filterUnits="userSpaceOnUse" color-interpolation-filters="sRGB">
      <feFlood flood-color="#fff" result="bg"/>
      <feBlend in="SourceGraphic" in2="bg"/>
    </filter>
    <mask id="mask-7" x="0" y="358.7" width="201.03" height="11.59" maskUnits="userSpaceOnUse">
      <g class="cls-88">
        <g transform="translate(-91.52 -64.85)">
          <g class="cls-3">
            <path class="cls-4" d="M292.54,429.35c0,3.2-45,5.8-100.51,5.8s-100.51-2.6-100.51-5.8,45-5.79,100.51-5.79S292.54,426.15,292.54,429.35Z"/>
          </g>
        </g>
      </g>
    </mask>
    <linearGradient id="linear-gradient-7" x1="211.81" y1="463.34" x2="173.23" y2="397.06" xlink:href="#linear-gradient-6"/>
    <radialGradient id="radial-gradient" cx="323.33" cy="151.92" r="174.73" gradientUnits="userSpaceOnUse">
      <stop offset="0.01" stop-color="#ffdd91"/>
      <stop offset="0.99" stop-color="#ffe655"/>
    </radialGradient>
    <filter id="luminosity-noclip-8" x="314.87" y="246.64" width="15.46" height="99.87" filterUnits="userSpaceOnUse" color-interpolation-filters="sRGB">
      <feFlood flood-color="#fff" result="bg"/>
      <feBlend in="SourceGraphic" in2="bg"/>
    </filter>
    <mask id="mask-8" x="223.35" y="181.78" width="15.46" height="99.87" maskUnits="userSpaceOnUse">
      <g class="cls-87">
        <g transform="translate(-91.52 -64.85)">
          <g class="cls-5">
            <rect class="cls-6" x="321.16" y="246.42" width="2.89" height="100.3" transform="translate(-34.66 42.81) rotate(-7.21)"/>
          </g>
        </g>
      </g>
    </mask>
    <linearGradient id="linear-gradient-8" x1="322.6" y1="206.78" x2="322.6" y2="317.02" gradientTransform="translate(39.75 -38.13) rotate(7.21)" gradientUnits="userSpaceOnUse">
      <stop offset="0.01" stop-color="#ffdd91"/>
      <stop offset="1" stop-color="#fff"/>
    </linearGradient>
    <filter id="luminosity-noclip-9" x="367.87" y="246.33" width="14.45" height="99.97" filterUnits="userSpaceOnUse" color-interpolation-filters="sRGB">
      <feFlood flood-color="#fff" result="bg"/>
      <feBlend in="SourceGraphic" in2="bg"/>
    </filter>
    <mask id="mask-9" x="276.35" y="181.47" width="14.45" height="99.97" maskUnits="userSpaceOnUse">
      <g class="cls-86">
        <g transform="translate(-91.52 -64.85)">
          <g class="cls-7">
            <rect class="cls-8" x="373.65" y="246.16" width="2.89" height="100.31" transform="translate(713.48 633.94) rotate(-173.37)"/>
          </g>
        </g>
      </g>
    </mask>
    <linearGradient id="linear-gradient-9" x1="375.1" y1="206.78" x2="375.1" y2="317.02" gradientTransform="translate(781.89 547.33) rotate(173.37)" xlink:href="#linear-gradient-8"/>
    <filter id="luminosity-noclip-10" x="316.25" y="248.44" width="65" height="13.58" filterUnits="userSpaceOnUse" color-interpolation-filters="sRGB">
      <feFlood flood-color="#fff" result="bg"/>
      <feBlend in="SourceGraphic" in2="bg"/>
    </filter>
    <mask id="mask-10" x="224.74" y="183.59" width="65" height="13.58" maskUnits="userSpaceOnUse">
      <g class="cls-85">
        <g transform="translate(-91.52 -64.85)">
          <g class="cls-9">
            <polygon class="cls-10" points="369.87 262.02 358.99 251.25 348.4 261.95 337.89 251.54 327.66 261.87 316.25 250.58 317.65 249.17 327.64 259.06 337.87 248.73 348.39 259.14 358.98 248.44 369.86 259.21 379.84 249.13 381.25 250.53 369.87 262.02"/>
          </g>
        </g>
      </g>
    </mask>
    <linearGradient id="linear-gradient-10" x1="257.23" y1="141.93" x2="257.23" y2="252.17" gradientTransform="matrix(1, 0, 0, 1, 0, 0)" xlink:href="#linear-gradient-8"/>
    <linearGradient id="linear-gradient-11" x1="292.75" y1="340.88" x2="400.37" y2="340.88" gradientUnits="userSpaceOnUse">
      <stop offset="0" stop-color="#40d5e6"/>
      <stop offset="1" stop-color="#57f"/>
    </linearGradient>
    <linearGradient id="linear-gradient-12" x1="-11531.97" y1="367.2" x2="-11845.52" y2="367.2" gradientTransform="matrix(-1, 0, 0, 1, -11423.56, -64.85)" gradientUnits="userSpaceOnUse">
      <stop offset="0" stop-color="#ff9f55"/>
      <stop offset="1" stop-color="#ffd255"/>
    </linearGradient>
    <linearGradient id="linear-gradient-13" x1="-11647.29" y1="367.2" x2="-11739.23" y2="367.2" xlink:href="#linear-gradient-12"/>
  </defs>
  <g>
    <g class="cls-11">
      <path class="cls-12" d="M598.48,429.35c0,3.2-43,5.8-96.14,5.8s-96.14-2.6-96.14-5.8,43-5.79,96.14-5.79S598.48,426.15,598.48,429.35Z" transform="translate(-91.52 -64.85)"/>
    </g>
    <g>
      <path class="cls-13" d="M528.93,420.11a2.06,2.06,0,1,0,2.05-2.06A2.05,2.05,0,0,0,528.93,420.11Z" transform="translate(-91.52 -64.85)"/>
      <polygon class="cls-13" points="483.68 353.22 483.16 354.68 461.17 347.87 462.23 344.91 483.68 353.22"/>
      <rect class="cls-13" x="551.94" y="385.14" width="2.5" height="26.54" transform="translate(1014.85 731.97) rotate(180)"/>
      <polygon class="cls-13" points="439.46 353.22 439.99 354.68 461.97 347.87 461 344.72 439.46 353.22"/>
      <polygon class="cls-13" points="454.96 354.52 454.96 356.23 461.97 347.87 461 344.72 454.96 354.52"/>
      <path class="cls-13" d="M546.3,420.11a2.06,2.06,0,1,0,2.05-2.06A2.05,2.05,0,0,0,546.3,420.11Z" transform="translate(-91.52 -64.85)"/>
      <path class="cls-14" d="M521.82,413a13,13,0,0,1-.48,3c-.33,1.19-1,5.8-1.85,6.44s-3.59,2.36-3.19,4.11.75,3,3.71,1.94,4.94-1.63,5.51-4.23a16.37,16.37,0,0,1,2.19-5l2.14,5.33,1.13-.46s-1.7-5.75-1.56-6.26-.78-5.08-4.36-6.22S521.82,413,521.82,413Z" transform="translate(-91.52 -64.85)"/>
      <path class="cls-14" d="M502,414.64a13,13,0,0,1-1.57,2.62c-.75,1-3.09,5-4.12,5.29s-4.21.85-4.49,2.63-.42,3,2.71,3.18,5.2.33,6.7-1.87a16.15,16.15,0,0,1,3.88-3.79v5.73h1.22s.56-6,.89-6.39,1.17-5-1.73-7.4S502,414.64,502,414.64Z" transform="translate(-91.52 -64.85)"/>
      <path class="cls-15" d="M533.92,336.63s-.69-2.47-.76-2.79a5.27,5.27,0,0,0-1.55-1.63,5.89,5.89,0,0,0-2.41-1.15.92.92,0,0,0-.66.4,1.77,1.77,0,0,0-.33.84,1.07,1.07,0,0,0-.57.87.93.93,0,0,0-.42,1s-.51.31-.39.78a8.06,8.06,0,0,1,.84.95,14.73,14.73,0,0,0,3.22,2.53S532.92,339.89,533.92,336.63Z" transform="translate(-91.52 -64.85)"/>
      <path class="cls-16" d="M530.89,334.67a5.52,5.52,0,0,0-.24,1.38c.06.33-2.38.38-2.38.38S529.61,334.34,530.89,334.67Z" transform="translate(-91.52 -64.85)"/>
      <path class="cls-17" d="M558.36,340.88c-1-1.59-2.3-2.31-6.47.58s-3.2,2.32-4.2,3.24a47.05,47.05,0,0,1-5.38,3.2,38.32,38.32,0,0,1-3.78-4.35c-1.39-2-4.27-7.48-4.27-7.48l-4,3s7.86,14.25,9.5,15.31,6.6-.71,9.18-1.8,5.3-2.49,6.48-2.78S560.93,345.05,558.36,340.88Z" transform="translate(-91.52 -64.85)"/>
      <rect class="cls-18" x="528.92" y="324.29" width="0.77" height="9.15" transform="translate(-150.06 57.24) rotate(-12.47)"/>
      <path class="cls-19" d="M529.43,331.22s2,1.75,1.8,2.11a.7.7,0,0,1-.55.36l.51,1.1s-.07.92-1.05.57c0,0,0,.87-.89.42,0,0-.24.58-.7.44a9,9,0,0,1-1.72-1.31s-.19-.37.36-.79a.93.93,0,0,1,.43-1,1,1,0,0,1,.56-.89s.06-1.14,1-1.21Z" transform="translate(-91.52 -64.85)"/>
      <path class="cls-15" d="M533.13,333.87a9.21,9.21,0,0,0-2.41-1.59c-.24-.08-.48-.11-.64.08s-.09.66.47,1.23a6.88,6.88,0,0,1,1,1.56S532.34,335.56,533.13,333.87Z" transform="translate(-91.52 -64.85)"/>
      <path class="cls-20" d="M538.9,349.55a9.4,9.4,0,0,1,.15-5.29,6.94,6.94,0,0,0,.67,4.09C540.48,349.58,538.9,349.55,538.9,349.55Z" transform="translate(-91.52 -64.85)"/>
      <path class="cls-21" d="M524,350s-2.21-16.33-6-23.45h5.65s6.33,11.15,5.14,22.41Z" transform="translate(-91.52 -64.85)"/>
      <path class="cls-15" d="M522.63,337.78s-.64-1.2-.8-1.59-.79.29-.69.79S522.63,337.78,522.63,337.78Z" transform="translate(-91.52 -64.85)"/>
      <path class="cls-15" d="M517.62,340.51a2.77,2.77,0,0,0,.37.81s.4.38.66.66a1.69,1.69,0,0,1,.2.23,5.46,5.46,0,0,0,1,1.26c.56.45,2.72,1.85,2.72,1.85l1.52-1.62,1.22-1.27s-1-3.87-1.51-4.35a.86.86,0,0,0-.14-.13,7.1,7.1,0,0,0-1.18-.63c-.1-.06-1.07-.6-1.39-.48a1.09,1.09,0,0,0-.73.77,2.61,2.61,0,0,0-1.11.9,1.67,1.67,0,0,0-.93,1.09S517.6,340,517.62,340.51Z" transform="translate(-91.52 -64.85)"/>
      <path class="cls-15" d="M507.62,382.68s3.73,8.4,6.4,14.39c.44,1,.86,1.95,1.23,2.77l1,2.31c1.7,3.82,5.87,12.14,5.87,12.14s3.14.12,3.32-2.55c0,0-3-5.77-3-9.83s-.54-16-4.42-18.6C513.3,380.16,510.23,379.56,507.62,382.68Z" transform="translate(-91.52 -64.85)"/>
      <path class="cls-15" d="M542.14,366.71a4.35,4.35,0,0,1-1.45,1c-.67.18-11.81,1-17,2.73s-12,2.79-13.27,4.24-3.39,9.45-3.33,11-4.53,27-5.1,29c-.3,1.06,4.15.65,4.15.65s6.32-15.08,7.67-17.86c2.48-5.12,2.61-11.39,3.52-12.36s11-3.15,16.84-3.15,18.84.48,20.23-.3,10.12-6.55,6.48-14.24S542.14,366.71,542.14,366.71Z" transform="translate(-91.52 -64.85)"/>
      <path class="cls-22" d="M517,372.26l9.2,17.72s2.78-6.59,7.63-7.73,24.2-.52,24.2-.52,8.88-11.23,1.27-17.13-16.48.93-16.48.93-1.83,2-2.72,2S532.12,367.42,517,372.26Z" transform="translate(-91.52 -64.85)"/>
      <path class="cls-15" d="M496.34,422.55s2.81.71,3.89,0,4.73-6.88,5.95-7.26c0,0-1.18-2.38-4.15-.65C502,414.64,497.14,421.52,496.34,422.55Z" transform="translate(-91.52 -64.85)"/>
      <path class="cls-15" d="M519.49,422.42s2.87-.39,3.61-1.44,1.82-8.16,2.81-9c0,0-2-1.77-4.09.94C521.82,413,519.85,421.17,519.49,422.42Z" transform="translate(-91.52 -64.85)"/>
      <path class="cls-13" d="M573.14,420.11a2.06,2.06,0,1,0,2.05-2.06A2.05,2.05,0,0,0,573.14,420.11Z" transform="translate(-91.52 -64.85)"/>
      <path class="cls-15" d="M548.8,311a7.5,7.5,0,0,0-7.89,6.88,18.65,18.65,0,0,0,.56,2.82c.39,1.25-.73,4.92-.44,5.09a7.49,7.49,0,0,0,1.49.42s1.3,4,2.7,4a11.63,11.63,0,0,0,9.24-6.12C557,319,557.75,311.39,548.8,311Z" transform="translate(-91.52 -64.85)"/>
      <path class="cls-15" d="M547.13,328.31s.17.56.36,1.4c.1.42.21.92.3,1.45a9.8,9.8,0,0,1,0,4.31s3.11,1.08,5.57-3.32c0,0-1.06-4.74.32-7.61S547.13,328.31,547.13,328.31Z" transform="translate(-91.52 -64.85)"/>
      <path class="cls-22" d="M540.91,317.84s3.4,3.05,7,2.81,6,4.31,6,4.31,5.44-6.82,1.05-12.33S540.13,311,540.91,317.84Z" transform="translate(-91.52 -64.85)"/>
      <path class="cls-15" d="M549.56,320.62a1.1,1.1,0,0,1,1.93-.78c1.13.94-.4,4.23-1.32,3.9S549.54,321.33,549.56,320.62Z" transform="translate(-91.52 -64.85)"/>
      <path class="cls-23" d="M547.49,329.71c.1.42.21.92.3,1.45a15.61,15.61,0,0,0,4.35-4.06A17.59,17.59,0,0,1,547.49,329.71Z" transform="translate(-91.52 -64.85)"/>
      <path class="cls-17" d="M539.06,346.5c.66,3,2.38,3.2,2.28,5.44s-.78,2.43.38,6a16,16,0,0,1,.53,2.09,2.38,2.38,0,0,1,0,.26c.07.41.14.82.2,1.22.1.75.17,1.49.22,2.15a4.44,4.44,0,0,1-1.14,3.09s11.34,6.8,19.12,5.84c0,0-2-8.47-3.13-11.38s-.77-16.35,0-19.24c1.2-4.26-1.2-10.64-4.5-11.47l-5.1,2.36s-5.14,6.14-6.29,7.07S538.4,343.43,539.06,346.5Z" transform="translate(-91.52 -64.85)"/>
      <path class="cls-17" d="M555.93,334.08c-1.44-1.2-3.52-3.26-6.57.8s-5.25,6.69-5.91,7.87-6.37,9.44-6.37,9.44-3-2.82-4.78-4.14c-2-1.49-7.29-7.05-7.29-7.05l-3.53,3.91s12.23,13.57,14.13,14,7.19-4.29,9.29-6.13,8-8.58,9-9.23S559.69,337.21,555.93,334.08Z" transform="translate(-91.52 -64.85)"/>
      <path class="cls-23" d="M514,397.07c.44,1,.86,1.95,1.23,2.77,1.37-4.41,1.26-11.79,1.26-11.79A42.68,42.68,0,0,1,514,397.07Z" transform="translate(-91.52 -64.85)"/>
      <rect class="cls-24" x="533.84" y="381.73" width="39.3" height="4.32" transform="translate(1015.46 702.93) rotate(180)"/>
      <path class="cls-24" d="M552.69,367.93s1,4-3.67,4.92-10.41,2.07-10.41,9.27h16.18Z" transform="translate(-91.52 -64.85)"/>
      <polygon class="cls-15" points="437.19 259.46 436.52 258.23 436.43 259.63 437.19 259.46"/>
      <path class="cls-24" d="M573.14,386.05l13.74-57.74s-24.84-3.88-27.8,7.27-7.82,44.29-13.74,46.34S573.14,386.05,573.14,386.05Z" transform="translate(-91.52 -64.85)"/>
      <path class="cls-20" d="M541.19,356s.25,1.06.53,1.94l6-7.84Z" transform="translate(-91.52 -64.85)"/>
      <path class="cls-22" d="M556.34,320.06s-2.39,6.31-1.74,8a5.34,5.34,0,0,1-3.05-5.73C552.24,318.23,556.34,320.06,556.34,320.06Z" transform="translate(-91.52 -64.85)"/>
      <polygon class="cls-17" points="456.21 268.33 456.21 267.08 461.51 264.5 463.35 266.62 456.21 268.33"/>
    </g>
    <g class="cls-25">
      <path class="cls-26" d="M292.54,429.35c0,3.2-45,5.8-100.51,5.8s-100.51-2.6-100.51-5.8,45-5.79,100.51-5.79S292.54,426.15,292.54,429.35Z" transform="translate(-91.52 -64.85)"/>
    </g>
    <g>
      <path class="cls-27" d="M195.63,156.19a6.73,6.73,0,0,1-3.51-2.34,5.06,5.06,0,0,1-1-4.17,31.09,31.09,0,0,0-.18-8.11,13.6,13.6,0,1,1,15.85,3.81,29.25,29.25,0,0,0-3.32,7c-.64,2.92-3.92,4.7-7.32,4A4.07,4.07,0,0,1,195.63,156.19Zm9.24-35.28a12.48,12.48,0,0,0-13,20.06l.1.12,0,.16a32,32,0,0,1,.21,8.6v0a4,4,0,0,0,.82,3.29,5.65,5.65,0,0,0,3.35,2c2.81.61,5.5-.79,6-3.13v0a30.5,30.5,0,0,1,3.54-7.42l.09-.15.17-.07a12.48,12.48,0,0,0-1.31-23.51Z" transform="translate(-91.52 -64.85)"/>
      <polygon class="cls-27" points="102.59 86.29 103.89 71.42 106.39 74.55 108.7 72.86 109.91 75.16 113.24 73.36 108.48 87.52 107.42 87.17 111.29 75.68 109.46 76.67 108.32 74.52 106.19 76.08 104.76 74.29 103.7 86.38 102.59 86.29"/>
      <rect class="cls-27" x="191.17" y="154.95" width="9.64" height="3.89" transform="translate(-53.84 -102.8) rotate(12.23)"/>
      <rect class="cls-27" x="190.21" y="151.04" width="12.75" height="6.26" transform="translate(-54.41 -102.99) rotate(12.23)"/>
    </g>
    <g>
      <polygon class="cls-28" points="398.19 171.13 397.1 170.76 406.21 144.24 426.57 138.6 433.57 109.52 449.25 102.39 452.51 79.81 453.65 79.97 450.29 103.17 434.56 110.34 427.52 139.53 407.1 145.18 398.19 171.13"/>
      <path class="cls-29" d="M520.91,202a3.06,3.06,0,1,1-4.31-.38A3.06,3.06,0,0,1,520.91,202Z" transform="translate(-91.52 -64.85)"/>
      <path class="cls-28" d="M520.9,206.71a3.64,3.64,0,1,1,.45-5.13A3.65,3.65,0,0,1,520.9,206.71ZM517,202a2.49,2.49,0,0,0,3.19,3.82A2.49,2.49,0,0,0,517,202Z" transform="translate(-91.52 -64.85)"/>
      <path class="cls-29" d="M528,173a3.07,3.07,0,1,1-4.31-.38A3.06,3.06,0,0,1,528,173Z" transform="translate(-91.52 -64.85)"/>
      <path class="cls-28" d="M528,177.75a3.64,3.64,0,1,1,.46-5.13A3.65,3.65,0,0,1,528,177.75Zm-3.93-4.7a2.49,2.49,0,1,0,3.5.31A2.48,2.48,0,0,0,524.07,173.05Z" transform="translate(-91.52 -64.85)"/>
      <path class="cls-29" d="M543.45,165.66a3.06,3.06,0,1,1-4.32-.38A3.07,3.07,0,0,1,543.45,165.66Z" transform="translate(-91.52 -64.85)"/>
      <path class="cls-28" d="M543.43,170.42a3.64,3.64,0,1,1,.46-5.13A3.63,3.63,0,0,1,543.43,170.42Zm-3.93-4.7a2.49,2.49,0,1,0,3.5.31A2.5,2.5,0,0,0,539.5,165.72Z" transform="translate(-91.52 -64.85)"/>
      <path class="cls-29" d="M500.64,207.86a3.06,3.06,0,1,1-4.32-.39A3.06,3.06,0,0,1,500.64,207.86Z" transform="translate(-91.52 -64.85)"/>
      <path class="cls-28" d="M500.63,212.61a3.64,3.64,0,1,1,.45-5.12A3.64,3.64,0,0,1,500.63,212.61Zm-3.94-4.7a2.49,2.49,0,1,0,3.51.31A2.5,2.5,0,0,0,496.69,207.91Z" transform="translate(-91.52 -64.85)"/>
    </g>
    <path class="cls-30" d="M436.45,175c-.21-42.44-40.93-76.65-91-76.4s-90.42,34.85-90.21,77.29a66.82,66.82,0,0,0,8,31.33c0,.06,27.92,53.94,32.09,105.17.12,24,23.11,43.27,51.36,43.13s51-19.67,50.92-43.64c3.67-51.29,31.06-105.47,31.06-105.47h0A66.83,66.83,0,0,0,436.45,175Z" transform="translate(-91.52 -64.85)"/>
    <polygon class="cls-31" points="360.44 6.44 370.57 6.44 367.47 0 357.33 0 360.44 6.44"/>
    <polygon class="cls-31" points="355.69 6.44 358.11 6.44 355 0 352.59 0 355.69 6.44"/>
    <rect class="cls-32" x="238.18" y="77.21" width="26.05" height="1.83" transform="translate(410.89 91.38) rotate(180)"/>
    <rect class="cls-32" x="238.18" y="80.65" width="26.05" height="7.68" transform="translate(410.89 104.12) rotate(180)"/>
    <rect class="cls-32" x="225.94" y="90.91" width="15.37" height="1.15" transform="translate(375.74 118.11) rotate(180)"/>
    <rect class="cls-32" x="225.94" y="92.56" width="15.37" height="3.11" transform="translate(375.74 123.36) rotate(180)"/>
    <rect class="cls-33" x="268.51" y="67.37" width="1.15" height="21.51" transform="translate(446.65 91.39) rotate(180)"/>
    <rect class="cls-34" x="196.96" y="198.1" width="20.52" height="3.72" transform="translate(322.93 335.06) rotate(180)"/>
    <rect class="cls-34" x="196.96" y="196.36" width="20.52" height="0.7" transform="translate(322.93 328.57) rotate(180)"/>
    <path class="cls-28" d="M462.44,193.84l-3.19-.63c7.62-38.34,1.15-69.37-18.71-89.73A73.54,73.54,0,0,0,407.77,84l.71-3.18a75.55,75.55,0,0,1,34.28,20.28C457.22,115.84,472.37,143.91,462.44,193.84Z" transform="translate(-91.52 -64.85)"/>
    <path class="cls-28" d="M246.36,242.15c-30.65-58.11-11.49-89.67-10.66-91l2.76,1.74c-.2.31-18.91,31.43,10.78,87.73Z" transform="translate(-91.52 -64.85)"/>
    <path class="cls-29" d="M386.08,186.58a25.25,25.25,0,0,0,1.58-6.88l4.65-1.78-.9-5.33-.9-5.33-5-.16a25.7,25.7,0,0,0-3.75-6l2-4.54-4.41-3.13L375,150.3l-3.63,3.41a25.08,25.08,0,0,0-6.88-1.58l-1.78-4.65-5.33.9-5.33.9-.16,5a25,25,0,0,0-6,3.75l-4.55-2-3.13,4.4-3.13,4.41,3.4,3.62a25.23,25.23,0,0,0-1.58,6.89l-4.65,1.78.9,5.33.9,5.33,5,.16a25.64,25.64,0,0,0,3.75,6l-2,4.54,4.41,3.14,4.4,3.13,3.63-3.4a25.08,25.08,0,0,0,6.88,1.58l1.78,4.64,5.33-.89,5.33-.9.16-5a25.54,25.54,0,0,0,6-3.74l4.53,2,3.14-4.4,3.13-4.4Zm-31.47,1.71a13.26,13.26,0,1,1,18.48-3.11A13.25,13.25,0,0,1,354.61,188.29Z" transform="translate(-91.52 -64.85)"/>
    <path class="cls-29" d="M337.24,215.48a15.58,15.58,0,0,0,1-4.36l2.94-1.12-.57-3.37-.56-3.38-3.15-.1a15.77,15.77,0,0,0-2.37-3.78l1.28-2.87-2.78-2-2.79-2L328,194.68a15.84,15.84,0,0,0-4.36-1l-1.12-2.94-3.37.56-3.37.57-.1,3.15a15.83,15.83,0,0,0-3.79,2.37L309,196.12l-2,2.78-2,2.79,2.15,2.29a15.77,15.77,0,0,0-1,4.35l-2.94,1.13.57,3.37.56,3.37,3.15.1a15.83,15.83,0,0,0,2.37,3.79L308.59,223l2.78,2,2.79,2,2.29-2.15a16.23,16.23,0,0,0,4.36,1l1.12,2.94,3.37-.57,3.37-.57.1-3.14a16.15,16.15,0,0,0,3.79-2.37l2.87,1.28,2-2.79,2-2.78Zm-19.9,1.08a8.38,8.38,0,1,1,11.69-2A8.39,8.39,0,0,1,317.34,216.56Z" transform="translate(-91.52 -64.85)"/>
    <g class="cls-35">
      <rect class="cls-36" x="321.16" y="246.42" width="2.89" height="100.3" transform="translate(-126.17 -22.04) rotate(-7.21)"/>
    </g>
    <g class="cls-37">
      <rect class="cls-38" x="373.65" y="246.16" width="2.89" height="100.31" transform="translate(621.96 569.09) rotate(-173.37)"/>
    </g>
    <g class="cls-39">
      <polygon class="cls-40" points="278.36 197.16 267.48 186.4 256.89 197.09 246.37 186.68 236.14 197.02 224.74 185.73 226.13 184.32 236.13 194.21 246.35 183.88 256.87 194.29 267.46 183.59 278.34 194.36 288.32 184.27 289.73 185.67 278.36 197.16"/>
    </g>
    <path class="cls-41" d="M375.81,382.72l-58,.29a11.65,11.65,0,0,1-11.71-11.59L306,348.6l81.3-.41L387.4,371A11.65,11.65,0,0,1,375.81,382.72Z" transform="translate(-91.52 -64.85)"/>
    <path class="cls-42" d="M383,368.49l-72.43.36a17.5,17.5,0,0,1-17.59-17.42l-.19-38,107.44-.53.18,38A17.49,17.49,0,0,1,383,368.49Z" transform="translate(-91.52 -64.85)"/>
    <rect class="cls-43" x="158.16" y="272.04" width="193.77" height="60.61"/>
    <polygon class="cls-44" points="351.93 332.65 351.93 272.04 281.41 272.04 243.51 331.97 351.93 332.65"/>
    <rect class="cls-45" x="161.96" y="244.3" width="2.36" height="107.14"/>
    <path class="cls-46" d="M104.22,199.54h63.41a7.08,7.08,0,0,1,7.08,7.08V326.68a7.07,7.07,0,0,1-7.07,7.07H104.22a7.07,7.07,0,0,1-7.07-7.07V206.61a7.08,7.08,0,0,1,7.08-7.08Z"/>
    <rect class="cls-29" x="99.28" y="201.7" width="73.3" height="126.81" rx="6.99"/>
    <rect class="cls-45" x="124.37" y="198.52" width="23.11" height="5.22"/>
    <path class="cls-47" d="M206.1,293.69a19.84,19.84,0,0,1,19.81-19.81v.89a18.92,18.92,0,1,0,18.92,18.92,18.49,18.49,0,0,0-.21-2.78l.88-.13a20.24,20.24,0,0,1,.21,2.91,19.81,19.81,0,1,1-39.61,0Z" transform="translate(-91.52 -64.85)"/>
    <g>
      <path class="cls-15" d="M181,356.12a4.67,4.67,0,0,1,.6,1.58,7.42,7.42,0,0,0,.73,1.87,18.57,18.57,0,0,1,.89,3.11,14.48,14.48,0,0,0-.42,2.09c.07.45.33,1.34-.08,1.4s-.86-.67-.86-.67a.59.59,0,0,1-.31.57,1,1,0,0,1-1,0s-.24.45-.55.52a1.26,1.26,0,0,1-1-.14,1.21,1.21,0,0,1-.77.25,1,1,0,0,1-.86-.53s-.76.15-1-.21A3.32,3.32,0,0,1,176,365a12.14,12.14,0,0,1,1-5.33,4.7,4.7,0,0,0-.25-4.13Z" transform="translate(-91.52 -64.85)"/>
      <path class="cls-19" d="M181.92,365.22s.06-2.6-.62-3.16-.77.39-.77.39.09-.93-.66-1.06-.78,1-.78,1a.72.72,0,0,0-.91-.57c-.79.15-.6,1.06-.6,1.06s-.75-.9-1.24,0a4,4,0,0,0-.08,3.19s.27.41,1,.22a1.05,1.05,0,0,0,1.64.3s1.16.63,1.58-.38C180.5,366.16,181.86,366.69,181.92,365.22Z" transform="translate(-91.52 -64.85)"/>
      <path class="cls-48" d="M189.8,318.53s-4.47,14.89-6,20.38c-.48,1.72-1.62,18.17-1.83,18.83s-5.86,1.57-5.86,1.57.68-20.57.75-21.7,6.25-24.09,8.05-24.91c1.34-.62,2.06-.11,3.76,1.15C191.08,315.62,189.8,318.53,189.8,318.53Z" transform="translate(-91.52 -64.85)"/>
      <rect class="cls-49" x="232.61" y="294.26" width="12.22" height="0.91" transform="translate(-213.88 113.82) rotate(-33.18)"/>
      <path class="cls-50" d="M245.16,294.84a2.5,2.5,0,0,1-.26.81s-.33.4-.55.7a1.64,1.64,0,0,0-.16.23,5,5,0,0,1-.85,1.32c-.49.49-2.38,2.06-2.38,2.06l-1.63-1.38-1.68-.75a31.63,31.63,0,0,1,1.34-4.62l.12-.14a6.59,6.59,0,0,1,1.06-.73c.08-.07,1-.69,1.26-.61a1,1,0,0,1,.78.65,2.44,2.44,0,0,1,1.15.74,1.55,1.55,0,0,1,1,.93S245.13,294.35,245.16,294.84Z" transform="translate(-91.52 -64.85)"/>
      <path class="cls-51" d="M186.18,420.17s-.41,2.82-.46,3.25-4.53-.25-4.53-.25l-.36-3.37S185.62,419.77,186.18,420.17Z" transform="translate(-91.52 -64.85)"/>
      <path class="cls-52" d="M185.77,423.06a11.87,11.87,0,0,0,2.79,2.44c1.37.75,3.53,1,4.34,1.81.58.55,2.13,2.94-3.57,2.89s-8.45.34-9.06-.58.89-6.75.89-6.75A12.22,12.22,0,0,0,185.77,423.06Z" transform="translate(-91.52 -64.85)"/>
      <path class="cls-51" d="M218.26,420.17s-.41,2.82-.46,3.25-4.53-.25-4.53-.25l-.36-3.37S217.7,419.77,218.26,420.17Z" transform="translate(-91.52 -64.85)"/>
      <path class="cls-52" d="M217.85,423.06a12.1,12.1,0,0,0,2.79,2.44c1.37.75,6.42,1.36,7.24,2.12.58.56,1.56,2.79-6.46,2.58-5.7-.15-8.45.34-9.06-.58s.88-6.75.88-6.75S214.51,423.39,217.85,423.06Z" transform="translate(-91.52 -64.85)"/>
      <path class="cls-52" d="M189.89,347.56s-4.21,6.68-3.9,12.73-1.53,12.63-2.16,18.95c-.7,7-3.58,23.69-3.69,27.46s.45,15.78.45,15.78l5.77.14s4.85-29.13,6.1-32.1,7.49-24.16,7.7-26.54S189.89,347.56,189.89,347.56Z" transform="translate(-91.52 -64.85)"/>
      <path class="cls-52" d="M212,348.46s3.17,16.56,3.59,20.26.7,17.9.91,20.21,2,30.18,2.51,33.69h-7.38S206,402.31,206,392.7s-4.38-20.89-7.2-27.23-9.3-6.49-11-18.25C187.77,347.22,209.68,344.73,212,348.46Z" transform="translate(-91.52 -64.85)"/>
      <path class="cls-15" d="M196.91,291.35s5.64-2.11,8.25,2.19,2.35,12.91-.5,14-7.12.5-8.58-2.19-2.77-6.58-2.71-9.18S195.42,292.1,196.91,291.35Z" transform="translate(-91.52 -64.85)"/>
      <path class="cls-15" d="M204.05,307.7a4.86,4.86,0,0,0,.15,2.28c.39.75-7.31.77-7.31.77a51.76,51.76,0,0,0-1.81-7.54C193.89,299.76,204.05,307.7,204.05,307.7Z" transform="translate(-91.52 -64.85)"/>
      <path class="cls-52" d="M195.08,303.21s.53.88,2.7.54,4.82-3.23,5.72-3.55.92-.85.92-.85l.57.83,1,.07s-.88-2.59.45-3.64-1.38-8.36-8.34-5.93c0,0-5.35,1.47-5.15,4.51S193.88,301.7,195.08,303.21Z" transform="translate(-91.52 -64.85)"/>
      <path class="cls-53" d="M204.66,309.89s0-1.44-.67-1.57-7.18-.77-8-.45v1.67S197.55,310.48,204.66,309.89Z" transform="translate(-91.52 -64.85)"/>
      <path class="cls-15" d="M204.27,298.25c-.12-.51-1.41-2-1.91-.41s.75,3.66,1.45,3.48S204.58,299.54,204.27,298.25Z" transform="translate(-91.52 -64.85)"/>
      <path class="cls-48" d="M215.46,312.06c-4.48-.59-10.8-2.17-10.8-2.17l-8.65-.35s-7.94,1.75-11.07,3.16c-.3.13-.3,7.08-1.11,8.91l2.59,5.47s1.5,10.84,1.81,15.65c.14,2.22-3.09,20.75-3.09,20.75a59.54,59.54,0,0,0,9.37,1.67c5.9.65,20.66-.23,20.75-.93s-2.85-26-3-27.28c-.2-2,.7-12.69.7-12.69,1.36-1.06,13.33-6.62,16.6-9.51.87-.78,4.56-4.37,5.61-5.61a99.6,99.6,0,0,0,7.13-9c.42-.46-4.17-3-4.58-3.09s-5.23,6.46-7.16,8.55a56.33,56.33,0,0,1-4.45,3.54S218.26,312.22,215.46,312.06Z" transform="translate(-91.52 -64.85)"/>
      <path class="cls-52" d="M195.3,291.86s-7.2.56-.22,11.35Z" transform="translate(-91.52 -64.85)"/>
      <polygon class="cls-54" points="152.56 226.9 153.15 226 152.06 226.14 152.56 226.9"/>
    </g>
    <polygon class="cls-55" points="502.57 208.07 468.9 208.07 468.9 232.48 468.9 237.62 474.04 232.48 502.57 232.48 502.57 208.07"/>
    <g>
      <path class="cls-56" d="M129.38,423.15a21.22,21.22,0,0,1-1.72,2.71c-.68.77-3.29,2.15-3.3,4.44,0,2.48,4.39,1.79,6.11,1.7s1.85-1.41,2.58-2.82,1.45-1.17,1.59-2.3a13.69,13.69,0,0,0-.7-3.73Z" transform="translate(-91.52 -64.85)"/>
      <path class="cls-57" d="M155.46,357s-4.85-11.31-5.44-14.09c-.26-1.26-1-4.39-1.45-7-.15-.85-.28-1.72-.39-2.57h0c-.43-3.41-.54-6.53-.54-6.53s-2.58-8.83,2.94-9.37a13.91,13.91,0,0,1,2,.84c.93,2.17,1.3,7.71,1.33,8.91,0,1,1.45,10.78,1.48,11.13,0,.67,1.5,4.21,2.29,6.84,1.72,5.71,2.62,10.22,2.62,10.22Z" transform="translate(-91.52 -64.85)"/>
      <rect class="cls-58" x="52.94" y="272.54" width="24.88" height="21.76"/>
      <rect class="cls-59" x="69.09" y="283.75" width="1.38" height="6.69"/>
      <rect class="cls-59" x="71.01" y="285.51" width="1.38" height="4.93"/>
      <rect class="cls-59" x="72.93" y="282.92" width="1.38" height="7.53"/>
      <path class="cls-15" d="M163.62,357.81s-.14,2.93-1.72,3.44a5.39,5.39,0,0,1-4-.39c-.72-.45-2.55-1.74-1.87-2.55C158.2,355.71,163.62,357.81,163.62,357.81Z" transform="translate(-91.52 -64.85)"/>
      <path class="cls-15" d="M162.82,360.52s2,.15,1.86-.69-1.52-.51-1.52-.51Z" transform="translate(-91.52 -64.85)"/>
      <rect class="cls-59" x="63.07" y="285.35" width="1.38" height="5.09"/>
      <rect class="cls-59" x="65.04" y="284.83" width="1.38" height="5.61"/>
      <rect class="cls-59" x="67.04" y="285.9" width="1.38" height="4.54"/>
      <rect class="cls-59" x="61.03" y="285.9" width="1.39" height="4.54"/>
      <g>
        <g>
          <path class="cls-59" d="M147.67,347.4a.21.21,0,0,0,0,.06l-.06,0-1.48,1,0-.06,1.48-1Z" transform="translate(-91.52 -64.85)"/>
          <path class="cls-59" d="M153,347.69a.13.13,0,0,1,0,.06H153l-4.25-.51h-.07a.13.13,0,0,0,0-.06h.07l4.25.51Z" transform="translate(-91.52 -64.85)"/>
          <path class="cls-59" d="M157.19,344.51l-.05,0L154,347.41l-.05,0,0,0,0-.05,3.15-2.86.05,0Z" transform="translate(-91.52 -64.85)"/>
          <path class="cls-59" d="M162.34,344.13s0,0,0,0h-4.27v-.07h4.27A0,0,0,0,0,162.34,344.13Z" transform="translate(-91.52 -64.85)"/>
          <path class="cls-59" d="M166,340.75l-2.73,3,0,0-.05,0,.05-.05,2.73-3Z" transform="translate(-91.52 -64.85)"/>
        </g>
        <path class="cls-59" d="M148.12,346.55a.59.59,0,0,0-.59.59.61.61,0,0,0,.08.3l0,.05a.61.61,0,0,0,.47.24.59.59,0,0,0,.58-.49s0,0,0-.07v0A.59.59,0,0,0,148.12,346.55Zm.51.68a.52.52,0,0,1-.51.43.51.51,0,0,1-.41-.2.21.21,0,0,1,0-.06.59.59,0,0,1-.07-.26.52.52,0,0,1,1,0v0A.13.13,0,0,1,148.63,347.23Z" transform="translate(-91.52 -64.85)"/>
        <path class="cls-59" d="M154,347.41l0-.05a.63.63,0,0,0-.42-.17.57.57,0,0,0-.57.49.15.15,0,0,0,0,.07v0a.59.59,0,1,0,1.17,0A.59.59,0,0,0,154,347.41Zm-.46.89a.52.52,0,0,1-.52-.52v0a.13.13,0,0,0,0-.06.52.52,0,0,1,.51-.43.54.54,0,0,1,.37.15l0,0a.51.51,0,0,1-.41.84Z" transform="translate(-91.52 -64.85)"/>
        <path class="cls-59" d="M158.14,344.1a.57.57,0,0,0-.58-.55.58.58,0,0,0-.59.58.59.59,0,0,0,.13.37l0,.05a.59.59,0,0,0,.42.17.57.57,0,0,0,.58-.55v-.07Zm-.58.56a.56.56,0,0,1-.37-.15l0-.05a.53.53,0,0,1,.41-.85.53.53,0,0,1,.52.49v.07A.53.53,0,0,1,157.56,344.66Z" transform="translate(-91.52 -64.85)"/>
        <path class="cls-59" d="M163.29,343.73l0-.05a.59.59,0,0,0-.37-.13.58.58,0,0,0-.59.55v.07a.59.59,0,0,0,1.17,0A.58.58,0,0,0,163.29,343.73Zm-.42.93a.52.52,0,0,1-.52-.49s0,0,0,0a0,0,0,0,1,0,0,.52.52,0,0,1,.52-.49.53.53,0,0,1,.32.12l.05,0a.51.51,0,0,1,.15.35A.53.53,0,0,1,162.87,344.66Z" transform="translate(-91.52 -64.85)"/>
      </g>
      <path class="cls-15" d="M116.17,357.42s-.86,1.49-1.87,1.46a6.19,6.19,0,0,0-2.37.7c-.48.23-2.2.42-1.91,1s2.84-.19,3.41-.25-.91,1.93-.88,2.49,3.6,2.57,4.45,1.1.74-3.55.94-3.78a9,9,0,0,0,.66-1.05Z" transform="translate(-91.52 -64.85)"/>
      <path class="cls-15" d="M112.66,362.41s-2.29,4.66-2.17,5.09.39.51.63.08,2.35-4.44,2.35-4.44-1.74,5.91-1.72,6.28c0,.22.52.43.67.21s2.22-6,2.22-6-1.61,5.53-1.5,5.83a.43.43,0,0,0,.78-.06c.15-.4,2-5.46,2-5.46s-.91,4.08-.65,4.28.59.32.79-.74S117,364,117,364Z" transform="translate(-91.52 -64.85)"/>
      <path class="cls-56" d="M155.59,422.92s2.12,2.38,4.28,2.87,3.66,1.13,3.68,2.49-6.2,2.26-8.67.89c-3.68-2.05-4-1.43-4.46-2.46s.49-3.75.46-4.08S155.59,422.92,155.59,422.92Z" transform="translate(-91.52 -64.85)"/>
      <path class="cls-60" d="M155.35,421.79a10.29,10.29,0,0,1,.24,1.13s-4.85.6-4.71-.29c.12-.72.29-1.51.29-1.51Z" transform="translate(-91.52 -64.85)"/>
      <path class="cls-60" d="M133.88,422.4a9.21,9.21,0,0,1,.16,1.09s-4.88.89-4.85,0a4.22,4.22,0,0,1,.44-1.51Z" transform="translate(-91.52 -64.85)"/>
      <path class="cls-52" d="M151,355.34s1.75,17,2.66,22.82c1.06,6.81,1.42,12.43,1.72,15.95.37,4.43.45,26.22.71,27.52s-5.8.36-5.8.36-3-28.48-4.09-33.19c-1-4.4-4.88-23.31-5.83-22.11s-2.11,22.07-2.81,25.53-2.83,30.59-2.83,30.59-4.83,1-6.11-.12c0,0-.58-23.38-.14-29.87.17-2.48-2.9-29.68,1-40.64C131.58,346.4,151,355.34,151,355.34Z" transform="translate(-91.52 -64.85)"/>
      <path class="cls-61" d="M116.81,357.74s1.32,1.52,2.55,1.29,6.41-16,6.46-19.15a81,81,0,0,1,1.44-9.32h0c.13.5,2,7.52,2.09,10.89s-.21,15.53-.21,15.53l4.69,1.25,15,.14,3.41-1.39s-.37-3.87-.51-6.59c-.09-1.73-.42-4.82-.34-7.83a27.49,27.49,0,0,1,.27-4.54c0-6,.39-12,.39-12q.31-4.11.43-7.68c-.66-.35-1.45-.76-2.09-1.06-2-.94-4.7-2.2-6.46-3-1-.47-2-.81-2-.81s-7-.68-7.59-.64a18.71,18.71,0,0,0-2.21.75A82.35,82.35,0,0,0,124,317c-1.12.81-3.49,19.88-3.59,21.22C120.21,340.63,116.81,357.74,116.81,357.74Z" transform="translate(-91.52 -64.85)"/>
      <path class="cls-62" d="M151.76,355.73a125.17,125.17,0,0,1-19.28,0v2.95s13.41,1.28,19.73-.56Z" transform="translate(-91.52 -64.85)"/>
      <path class="cls-57" d="M143,313.91s1.67,3.92,2.92,12.7c.48,3.37,1.38,9.05,2,14.84h0c.51,4.57,1.68,9.26,2.05,12.75s1.54,14.29,1.54,14.29l2.81-1.77c.4-.37,1-.85.8-1.38A150.53,150.53,0,0,1,152,347.41v0l-.12-1v-.06c-.17-1.43-.31-2.81-.4-4.07a12.75,12.75,0,0,1,.12-2.84c.4-6.46.59-13.26.59-13.26.21-2.79.32-5.39.4-7.82C152.61,318.31,143.79,314.14,143,313.91Z" transform="translate(-91.52 -64.85)"/>
      <path class="cls-57" d="M126,340c-.22,2.93-5.58,20-6.29,20a53.06,53.06,0,0,1-5.46-1.45s5.18-17.39,5.36-19.22c.14-1.33,2.26-21.33,3.38-22.14.65-.46,5.44-2.16,7.8-3.09l2.23-.85c.5.56,4,4.34,5.21,18.69.2,2.42-.44,7.54-.87,11.72-.47,4.46-1,7.94-1.35,11.67-.74,7.35-1.25,13.19-1.25,13.19l-7.32-3.25c-1.18-.6-2.82-3-2.37-4.27,1.69-4.74,3.82-12.83,3.82-17,0,0-.82-10.18-1.46-12.41A61.57,61.57,0,0,0,126,340Z" transform="translate(-91.52 -64.85)"/>
      <path class="cls-15" d="M138.62,295s7.33-2.71,6.87,7-2.18,10.73-7,9.37-5.22-7.51-5.85-10.47S136.22,295.41,138.62,295Z" transform="translate(-91.52 -64.85)"/>
      <path class="cls-63" d="M133.66,305.76s0-2.61,1.06-2.85,1.64,1.27,1.64,1.27l.87-.05s-.78-2.63.25-3.24,7.21-.07,8-1-.35-6.16-2-6.68-6.29-1.57-9.21,1c0,0-2.54.05-2.64,2.12S132.77,304.34,133.66,305.76Z" transform="translate(-91.52 -64.85)"/>
      <path class="cls-15" d="M135.94,301.81c-.32-.86-2.15-.75-2,.61s1.7,3.46,2.3,3.06S136.39,303,135.94,301.81Z" transform="translate(-91.52 -64.85)"/>
      <path class="cls-64" d="M134.92,313.59s.65-.54-.28-5.42c-.25-1.3,6.88,1.56,6.88,1.56s-.06,1.07-.05,2.15c0,.48,0,1,.06,1.34a4.56,4.56,0,0,0,.26.94C142.11,314.91,137.56,315.47,134.92,313.59Z" transform="translate(-91.52 -64.85)"/>
      <path class="cls-23" d="M141.53,313.22a6.09,6.09,0,0,1-5.7-3.41,8,8,0,0,0,5.64,2.07C141.47,312.36,141.49,312.84,141.53,313.22Z" transform="translate(-91.52 -64.85)"/>
      <path class="cls-65" d="M139.8,316.11l1.3,1.74a1.57,1.57,0,0,1-2.11.27Z" transform="translate(-91.52 -64.85)"/>
      <path class="cls-65" d="M140.73,317.92s4.81,18.54,3.82,33l-1.62,2.86-1.51-3s-.42-25.81-1.74-32.87Z" transform="translate(-91.52 -64.85)"/>
      <path class="cls-64" d="M141.19,314.49l-1.39,1.62s-2.23-.43-2.88-1.6S141.19,314.49,141.19,314.49Z" transform="translate(-91.52 -64.85)"/>
      <path class="cls-66" d="M141.51,313.06a6.68,6.68,0,0,1-1.71,3.05l1.69,2.27.92-4.71Z" transform="translate(-91.52 -64.85)"/>
      <path class="cls-66" d="M135.13,311.8s2.42,3.42,4.67,4.31l-1,2.6-4.8-5.8Z" transform="translate(-91.52 -64.85)"/>
    </g>
    <g>
      <polygon class="cls-67" points="397.75 358.96 391.83 319.55 392.97 319.37 398.9 358.78 397.75 358.96"/>
      <polygon class="cls-67" points="390.52 358.96 384.59 319.55 385.74 319.37 391.66 358.78 390.52 358.96"/>
      <polygon class="cls-67" points="354.88 358.96 353.74 358.78 359.66 319.37 360.81 319.55 354.88 358.96"/>
      <path class="cls-68" d="M485.2,384.8,489.84,336a93.31,93.31,0,0,0-13-.8l-7.37,49.63Z" transform="translate(-91.52 -64.85)"/>
      <rect class="cls-68" x="377.93" y="317.47" width="15.75" height="2.48"/>
      <path class="cls-68" d="M459.14,382.81l-2.46-46.53s20.54-2.23,33.16-.31Z" transform="translate(-91.52 -64.85)"/>
      <path class="cls-69" d="M475.55,321.21s3.17-9.31-2.88-12.19-11.2,1.28-12.17,3.54-.71,6.36.11,9.22.71,7.22-1.09,8.67a10.11,10.11,0,0,0-3.92,8.8c.07,3.06,12-7.81,12-7.81Z" transform="translate(-91.52 -64.85)"/>
      <path class="cls-70" d="M467.47,421.33s-.19,6.57.75,7,4.49-1.89,6.06-4.16-2-7.52-2.54-10.42c-.25-1.22-3-3.41-4.35-2.78a6.58,6.58,0,0,0-2.33,2.23S468.48,415.52,467.47,421.33Z" transform="translate(-91.52 -64.85)"/>
      <path class="cls-71" d="M465.06,413.17a37.28,37.28,0,0,1,1.76,4c.6,1.74.72,6.56,1.09,6.89s3.36-1.16,3.76-3-.82-5.41-2-7.31a11.83,11.83,0,0,0-2.32-2.84A3,3,0,0,0,465.06,413.17Z" transform="translate(-91.52 -64.85)"/>
      <polygon class="cls-70" points="380.22 348.86 383.42 353.53 382.81 353.95 380.34 350.34 380.22 348.86"/>
      <path class="cls-71" d="M460.22,362.08s1.56,2.64,0,4.57-12.09,7.2-12,10.26,2,7.83,2.7,9,3.25,6.24,4.57,9.18,9,17,10.51,20.2.57-12.69.57-12.69l-7.67-22.51,17.93-17.47S474.65,357.83,460.22,362.08Z" transform="translate(-91.52 -64.85)"/>
      <path class="cls-72" d="M467,332.27s-5,1.11-7,2.26-6.36,6.47-6.36,8.75,19.18,4.42,19.18,4.42L476.55,361s9.69-2.37,10.84-4.33-3.81-15.93-4.5-18.87-4.33-4.93-8.36-5.5A28.07,28.07,0,0,0,467,332.27Z" transform="translate(-91.52 -64.85)"/>
      <path class="cls-15" d="M478.8,362.52s-.34,2.27.58,3.23,5.18,6.57,2.92,12.08c-2.06,5.06-6.08,5-6.08,5H470s1.8,9.1,1.22,15.1-3.32,19.71-3.38,20.41-2.63,2.85-3.37,1.76c0,0-.07-8.26-.48-11.37s-2.12-15.59-2.64-17.43-3.58-7.45-3.58-8-3-9.62,3.53-11.92S470.15,362.57,478.8,362.52Z" transform="translate(-91.52 -64.85)"/>
      <path class="cls-73" d="M461.39,426.43s-4.28,5-3.8,5.89,4.69,1.36,7.33.59,3.2-7.09,4.58-9.71c.57-1.1-.2-4.53-1.64-4.89a6.6,6.6,0,0,0-3.22.27S465.83,422.56,461.39,426.43Z" transform="translate(-91.52 -64.85)"/>
      <path class="cls-15" d="M464.64,418.58a35.75,35.75,0,0,1-1.13,4.2c-.63,1.73-3.57,5.55-3.49,6.05s3.34,1.2,4.79.05,2.77-4.71,3.06-6.91a11.74,11.74,0,0,0,0-3.66A3,3,0,0,0,464.64,418.58Z" transform="translate(-91.52 -64.85)"/>
      <polygon class="cls-73" points="377.98 358.35 377.53 363.99 376.8 363.93 377.14 359.57 377.98 358.35"/>
      <path class="cls-72" d="M482.3,377.83c-1.95,5.13-6.08,5-6.08,5H470s-2.59-4.11-8.94-4.81a18.55,18.55,0,0,0-4.78.11h-.06c-8.42,1.25-6.8,4.34-6.77,4.42a15.07,15.07,0,0,1-1.26-5.89c.81-6.67,10.44-8.07,12-10s0-4.57,0-4.57c14.43-4.25,16.6.58,16.6.58.63-.09,2.25-1,2.94-1,0,0,.73,1.58,1.23,3C481.44,365.89,484.42,372.27,482.3,377.83Z" transform="translate(-91.52 -64.85)"/>
      <polygon class="cls-74" points="384.8 276.26 386.93 296.11 358.83 296.11 356.69 276.26 384.8 276.26"/>
      <rect class="cls-74" x="384.48" y="294.33" width="4.69" height="1.79"/>
      <rect class="cls-75" x="339.46" y="296.11" width="89.51" height="2.7"/>
      <path class="cls-15" d="M470.15,310.6s6.3,1.87,5.4,10.61-5,8.29-5.4,8.35-5.27.38-6.81-10.22S470.15,310.6,470.15,310.6Z" transform="translate(-91.52 -64.85)"/>
      <path class="cls-15" d="M473.15,328a14.62,14.62,0,0,0,.22,4.7c.56,1.79-7.33,1.84-7.33.36,0-1.68.81-3.08,0-6S473.15,328,473.15,328Z" transform="translate(-91.52 -64.85)"/>
      <path class="cls-69" d="M468.53,314.5s3.42,5.44,7,6.71c0,0,2-9.14-6.16-11s-6.85,9.22-6.24,12.19A24.15,24.15,0,0,1,468.53,314.5Z" transform="translate(-91.52 -64.85)"/>
      <path class="cls-23" d="M467,328.32a4.26,4.26,0,0,0,5.68.27,2.56,2.56,0,0,1-2.56,1.88A3.2,3.2,0,0,1,467,328.32Z" transform="translate(-91.52 -64.85)"/>
      <path class="cls-76" d="M463.94,313.68s1.8-3.49,4.84-3.64a6,6,0,0,1,4.85,2.48,5.18,5.18,0,0,0-4.85-3C465.12,309.55,463.94,313.68,463.94,313.68Z" transform="translate(-91.52 -64.85)"/>
      <path class="cls-15" d="M474.18,332.23s-.11,6-4.91,6.23-3.8-5.8-3.8-5.8A16.59,16.59,0,0,1,474.18,332.23Z" transform="translate(-91.52 -64.85)"/>
      <rect class="cls-77" x="426.98" y="298.82" width="1.99" height="68.22"/>
      <rect class="cls-77" x="339.46" y="298.82" width="1.99" height="68.22"/>
    </g>
    <g>
      <path class="cls-29" d="M358,375.61a18.87,18.87,0,0,0-2.89,3.38c-1.36,2.05-5,2.16-5.14,4.95s4.93,2.89,7.59,2,3.08-3.65,4.69-4.33,2.46-1.23,2.33-2.57a16,16,0,0,0-1-3.5,11.43,11.43,0,0,1-1.59.39A13.36,13.36,0,0,1,358,375.61Z" transform="translate(-91.52 -64.85)"/>
      <path class="cls-78" d="M376.3,299.83s-1,6.09-1.85,10.11h0a22.77,22.77,0,0,1-.82,3.32,47.4,47.4,0,0,1-4.51,5c-4.12,4.24-9.57,9.59-9.57,9.59l-2.13-4.05s4.84-5.67,8.12-9.45c1.52-1.76,2.7-3.1,2.92-3.3.69-.61,1.48-6.66,2.6-11.64a20.17,20.17,0,0,1,3.36-7.74Z" transform="translate(-91.52 -64.85)"/>
      <path class="cls-15" d="M369.12,318.26c-4.12,4.24-9.57,9.59-9.57,9.59l-2.13-4.05s4.84-5.67,8.12-9.45A6.89,6.89,0,0,1,369.12,318.26Z" transform="translate(-91.52 -64.85)"/>
      <path class="cls-29" d="M395.57,373.94s1.4,1.55,2.23,2.49,4,2.62,4,5.41c0,3-2.34,2.75-4.44,2.64a5.81,5.81,0,0,1-4.69-3.27c-.88-1.71-3.23-2.16-3.4-3.54s1.09-3.87,1.09-3.87Z" transform="translate(-91.52 -64.85)"/>
      <path class="cls-79" d="M390.65,371.23l-.27,2.57s4.38,1.91,5.19.14l-.19-2.29Z" transform="translate(-91.52 -64.85)"/>
      <path class="cls-79" d="M358.24,373.75l-.24,1.86a9.19,9.19,0,0,0,5.56-.09l.06-1.65Z" transform="translate(-91.52 -64.85)"/>
      <path class="cls-78" d="M395.82,327c.15.54-28,0-28,0s7.8-5.68,8.3-7.2-2-10.61-2.31-13.57c-.26-2.37-.91-13,.65-14.59s7.51-3.46,7.51-3.46l8.57.31a13.58,13.58,0,0,1,2.43.77c1,.47,6.79,2.53,7.73,5.42s-5.77,12.17-5.77,12.17,0,.42,0,1.1h0c0,.92-.07,2.3-.1,3.8-.05,2-.09,4.1-.09,5.66A56.3,56.3,0,0,0,395.82,327Z" transform="translate(-91.52 -64.85)"/>
      <path class="cls-72" d="M395.82,327s3.84,5.63,3.89,9.47-1.42,14.51-1.53,16.62-2.1,19.72-2.1,19.72-1.53,1.42-6.13-.37c0,0-1-16.69-1.13-18.47s-.11-10-1.13-11.21-7.26-4.93-8.07-5.64-15,2.68-16.45,3.06c-3.84,1-2.09,7.68-1.24,10.67,1.42,5,2.66,23.11,2.66,23.11s-2.73,1.17-7.31.18c0,0-9-32.67-9.29-35.92s-.43-8.61,21.74-12.68Z" transform="translate(-91.52 -64.85)"/>
      <path class="cls-15" d="M384.29,269.59s-7.44-1.68-5.75,7.68,3.49,10.1,8,8.16,4.09-7.93,4.31-10.87S386.66,269.69,384.29,269.59Z" transform="translate(-91.52 -64.85)"/>
      <path class="cls-15" d="M382.31,290.61s3.3,3.49,8.51.32c0,0-1.17-7.57-.56-11.26s-6.79,5.71-6.79,5.71.16.41.18.91a10.28,10.28,0,0,1-.08,1.5C383.42,289,383,290.31,382.31,290.61Z" transform="translate(-91.52 -64.85)"/>
      <path class="cls-15" d="M388.27,276a1,1,0,0,1,1.87.11c.13,1.24-.75,3.41-1.37,3.2S388.14,277.17,388.27,276Z" transform="translate(-91.52 -64.85)"/>
      <path class="cls-80" d="M390.47,279.36s-.19-2.95-1.27-3-1.24,1.09-1.24,1.09l-1.09.21s.34-2.59-.73-3-7,1.43-7.84.67-.45-6,1.11-6.72,5.87-2.33,9-.19c0,0,2.47-.28,2.83,1.71S391.14,277.88,390.47,279.36Z" transform="translate(-91.52 -64.85)"/>
      <path class="cls-23" d="M383.57,287.79c5.37-1.66,5.78-4.89,5.78-4.94-1.77,3-5.7,3.44-5.7,3.44A10.28,10.28,0,0,1,383.57,287.79Z" transform="translate(-91.52 -64.85)"/>
      <path class="cls-15" d="M393,289.33s-3.93,7.83-10.28,7.33-1.09-8.38-.8-8.45S388.45,286.58,393,289.33Z" transform="translate(-91.52 -64.85)"/>
      <path class="cls-78" d="M364.56,326.63s19.46,2.4,31.26.4l-22.54-2.82S373.15,324.79,364.56,326.63Z" transform="translate(-91.52 -64.85)"/>
      <path class="cls-15" d="M379.12,323.32l-1.45.74s.33,2.3,1.12,3l1.63-.41S380.08,324.12,379.12,323.32Z" transform="translate(-91.52 -64.85)"/>
      <path class="cls-78" d="M401.65,318.61a75.74,75.74,0,0,1-8.45,3.54h0c-5.9,2.27-12.57,4.43-12.57,4.43l-1.51-3.26s7-3.79,11.69-6.45c2.23-1.25,3.95-2.26,4.19-2.49.76-.72,1-1.88.4-3.9s-1.84-11.3-2-12.38.37-4,3.07-4.12a8.2,8.2,0,0,1,4.09.62s.68.28,1.18,6.86S402.33,317.81,401.65,318.61Z" transform="translate(-91.52 -64.85)"/>
      <path class="cls-81" d="M394.86,308h0c0,.92-.07,2.3-.1,3.8a18.88,18.88,0,0,1-1.09-11.73C393.38,301.81,394.83,307.9,394.86,308Z" transform="translate(-91.52 -64.85)"/>
      <path class="cls-81" d="M374.45,309.94h0a22.77,22.77,0,0,1-.82,3.32,34.46,34.46,0,0,1-.09-10A56.06,56.06,0,0,0,374.45,309.94Z" transform="translate(-91.52 -64.85)"/>
      <path class="cls-15" d="M393.2,322.15h0c-5.9,2.27-12.78,4.5-12.78,4.5l-1.3-3.33s7-3.79,11.69-6.45C390.81,316.87,392.53,317.71,393.2,322.15Z" transform="translate(-91.52 -64.85)"/>
      <polygon class="cls-82" points="287.18 261.98 259.51 261.57 273.48 268.67 287.18 261.98"/>
      <polygon class="cls-83" points="273.48 268.67 287.18 263.36 287.18 261.98 272.39 267.32 273.48 268.67"/>
      <path class="cls-15" d="M378,324.11s-1.73-.27-2.92-.55c-.93-.21-3.23.08-3.81.68s-2.45,4.72-2.8,5,.18.83.8.54c0,0,.56,1.81,2,1.13s2.36-2.16,3.09-2.42,5-1.57,5-1.57S379.08,323.67,378,324.11Z" transform="translate(-91.52 -64.85)"/>
      <path class="cls-15" d="M371.67,324a11.71,11.71,0,0,0-1.4.77c-.29.24-1.47,1.12-1.75,1.33s.43.79,2.53-.12S371.67,324,371.67,324Z" transform="translate(-91.52 -64.85)"/>
      <polygon class="cls-84" points="273.48 268.67 265.25 246.2 238.71 246.63 246.56 267.34 273.48 268.67"/>
      <path class="cls-77" d="M348.28,321c.8,1.62.56,3.39-.55,3.94s-2.67-.31-3.48-1.92-.56-3.39.54-3.94S347.46,319.38,348.28,321Z" transform="translate(-91.52 -64.85)"/>
    </g>
  </g>
</svg>
