<svg id="Camada_1" data-name="Camada 1" xmlns="http://www.w3.org/2000/svg" width="1298.51" height="93.43" viewBox="0 0 1298.51 93.43">
  <defs>
    <style>
      .cls-1 {
        opacity: 0.7;
      }

      .cls-2 {
        fill: #f2f2f2;
      }
    </style>
  </defs>
  <g class="cls-1">
    <path class="cls-2" d="M100.12,76.42h-32L64.76,99.06h38.36l-2.43,16.21H41.25L54.84,24.46h59.51l-2.44,16.22H73.49L70.56,60.2h32Z" transform="translate(-41.25 -23.15)"/>
    <path class="cls-2" d="M164.55,88l.38.06L195,24.46h27.88l-13.6,90.81H188.19l8.73-58.44-.37-.06-28.75,58.5H153.64l-11-57.63h-.37l-8.61,57.63H112.54l13.59-90.81h27.63Z" transform="translate(-41.25 -23.15)"/>
    <path class="cls-2" d="M249.44,84.15l-4.61,31.12H223.74l13.6-90.81H272q15.53,0,24.07,8.33t6.62,21.55Q300.58,68.25,290,76.2t-26.91,8Zm2.43-16.22h13.66a15.79,15.79,0,0,0,10.92-3.83,15.62,15.62,0,0,0,5.17-9.64q.88-6.23-2.12-10t-9.91-3.77H256Z" transform="translate(-41.25 -23.15)"/>
    <path class="cls-2" d="M331.46,80.47l-5.18,34.8H305.2l13.6-90.81h31.62q15.21,0,23.64,7.36t6.55,19.9A23.85,23.85,0,0,1,375,64.07a31,31,0,0,1-12.22,8q7.73,2.44,10.7,8t1.84,13.56l-.88,5.74a34.31,34.31,0,0,0-.15,8.17q.41,4.5,2.71,6.43l-.19,1.24H355c-1.46-1.28-2.21-3.53-2.25-6.73a56.49,56.49,0,0,1,.62-9.23l.88-5.49q1-6.73-1.87-10t-9.61-3.31Zm2.43-16.22h10.73a16.18,16.18,0,0,0,10-2.93A12.39,12.39,0,0,0,359.4,53q.81-5.74-2.12-9.05T348,40.68H337.45Z" transform="translate(-41.25 -23.15)"/>
    <path class="cls-2" d="M445.54,76.42h-32l-3.37,22.64h38.36l-2.43,16.21H386.66l13.59-90.81h59.51l-2.44,16.22H418.9L416,60.2h32Z" transform="translate(-41.25 -23.15)"/>
    <path class="cls-2" d="M516.83,76.42h-32l-3.37,22.64h38.36l-2.43,16.21H458l13.59-90.81h59.51l-2.44,16.22H490.19L487.26,60.2h32Z" transform="translate(-41.25 -23.15)"/>
    <path class="cls-2" d="M605,115.27h-21L559.18,58.14l-.38.06-8.48,57.07H529.24l13.6-90.81h21.08l24.7,57.07.37-.06,8.55-57h21Z" transform="translate(-41.25 -23.15)"/>
    <path class="cls-2" d="M666.27,24.46q15.4,0,24.91,10.54t7.15,26.7L695.89,78q-2.61,17-14.81,27.13a43.17,43.17,0,0,1-28.41,10.1H619.43L633,24.46Zm-14.6,16.22-8.73,58.38H655.1q6.87,0,12.54-5.93A27.34,27.34,0,0,0,674.75,78l2.43-16.47q1.38-9.54-2.37-15.22t-11-5.67Z" transform="translate(-41.25 -23.15)"/>
    <path class="cls-2" d="M761.76,76.42h-32l-3.37,22.64h38.36l-2.43,16.21H702.88l13.6-90.81H776l-2.43,16.22H735.13L732.19,60.2h32Z" transform="translate(-41.25 -23.15)"/>
    <path class="cls-2" d="M821,24.46q15.4,0,24.92,10.54t7.14,26.7L850.64,78q-2.62,17-14.82,27.13a43.17,43.17,0,0,1-28.41,10.1H774.17l13.6-90.81ZM806.42,40.68l-8.74,58.38h12.17q6.85,0,12.53-5.93A27.2,27.2,0,0,0,829.49,78l2.44-16.47q1.37-9.54-2.37-15.22a12.33,12.33,0,0,0-11-5.67Z" transform="translate(-41.25 -23.15)"/>
    <path class="cls-2" d="M938.71,78Q936,95.5,923.92,106t-29.44,10.54q-16.59,0-26-11T861.55,78L864,61.7q2.57-17.34,14.76-27.94t29.65-10.61q16.47,0,25.82,11t6.93,27.54ZM920.12,61.57q1.5-10.09-2.12-16.15t-12-6.05a18,18,0,0,0-13.88,6.27A29.74,29.74,0,0,0,885,61.57L882.57,78Q881,88.27,884.66,94.32t12.26,6.05a17.64,17.64,0,0,0,13.62-6.3,30.26,30.26,0,0,0,7.15-16Z" transform="translate(-41.25 -23.15)"/>
    <path class="cls-2" d="M972.2,80.47,967,115.27H945.94l13.6-90.81h31.62q15.21,0,23.64,7.36t6.55,19.9a23.93,23.93,0,0,1-5.62,12.35,31,31,0,0,1-12.22,8q7.72,2.44,10.7,8T1016,93.69l-.87,5.74a34.31,34.31,0,0,0-.15,8.17q.4,4.5,2.71,6.43l-.19,1.24H995.77c-1.45-1.28-2.2-3.53-2.24-6.73a55.4,55.4,0,0,1,.62-9.23l.88-5.49q1-6.73-1.88-10t-9.6-3.31Zm2.43-16.22h10.73a16.18,16.18,0,0,0,10-2.93,12.39,12.39,0,0,0,4.77-8.29Q1001,47.29,998,44t-9.29-3.3H978.19Z" transform="translate(-41.25 -23.15)"/>
    <path class="cls-2" d="M1049.73,115.27h-21l13.59-90.81h21Z" transform="translate(-41.25 -23.15)"/>
    <path class="cls-2" d="M1117.34,92.63q.81-5.55-2.37-8.26t-12.35-6.14q-16.15-5.31-24.2-12.6t-6.37-18.4q1.7-11.17,11.76-17.62t24.29-6.46q15.48,0,24.27,7.42t6.55,20.4l-.13.37h-20.52a9.43,9.43,0,0,0-2.77-8.67q-3.52-3.3-9.83-3.3a15.63,15.63,0,0,0-8.29,2.24q-3.69,2.25-4.18,5.49-.75,5.06,2.8,7.55t15.1,6.55Q1125.82,66,1133,73.36t5.43,19.15a24.65,24.65,0,0,1-11.7,17.87q-9.88,6.21-24.48,6.2-15,0-25.35-6.79t-7.89-21l.12-.38h20.46q-1.07,6.67,3.65,9.33a23.07,23.07,0,0,0,11.44,2.65,16.22,16.22,0,0,0,8.39-2.22C1115.58,96.68,1117,94.84,1117.34,92.63Z" transform="translate(-41.25 -23.15)"/>
    <path class="cls-2" d="M1196.55,88l.37.06L1227,24.46h27.88l-13.59,90.81h-21.08l8.73-58.44-.38-.06-28.75,58.5h-14.16l-11-57.63h-.37l-8.61,57.63h-21.08l13.6-90.81h27.63Z" transform="translate(-41.25 -23.15)"/>
    <path class="cls-2" d="M1336.82,78q-2.68,17.46-14.78,28t-29.44,10.54q-16.59,0-26-11T1259.67,78l2.43-16.34q2.55-17.34,14.75-27.94t29.66-10.61q16.47,0,25.82,11t6.92,27.54Zm-18.59-16.47q1.5-10.09-2.12-16.15t-12-6.05a18,18,0,0,0-13.88,6.27,29.6,29.6,0,0,0-7.08,15.93L1280.69,78q-1.56,10.23,2.09,16.28t12.25,6.05a17.66,17.66,0,0,0,13.63-6.3,30.33,30.33,0,0,0,7.14-16Z" transform="translate(-41.25 -23.15)"/>
  </g>
</svg>
